<svg xmlns="http://www.w3.org/2000/svg" xmlns:xlink="http://www.w3.org/1999/xlink" viewBox="8 3 147 29">
  <defs>
    <style>
      .cls-1 {
        clip-path: url(#clip-PASS_Région);
      }

      .cls-2 {
        stroke: rgba(0,0,0,0);
      }
    </style>
    <clipPath id="clip-PASS_Région">
      <rect x="8" y="3" width="147" height="29"/>
    </clipPath>
  </defs>
  <g id="PASS_Région" data-name="PASS’ Région" class="cls-1">
    <g id="Groupe_1" data-name="Groupe 1" transform="translate(14 3.469)">
      <g id="Symbole_2" data-name="Symbole 2" transform="translate(-2466 -3126)">
        <g id="Calque_1" data-name="Calque 1" transform="translate(2532.526 3132.183)">
          <rect id="Rectangle_2" data-name="Rectangle 2" width="2.978" height="10.961" transform="translate(39.531 4.824)"/>
          <path id="Tracé_14" data-name="Tracé 14" d="M59.163,4.487a3.531,3.531,0,0,0-3.421-1.8A4.844,4.844,0,0,0,52.276,4.3a5,5,0,0,0-1.268,3.648v.144a4.852,4.852,0,0,0,1.214,3.668,4.7,4.7,0,0,0,3.483,1.57,4.03,4.03,0,0,0,3.545-2.034v1.656a2.452,2.452,0,0,1-.713,2.025,2.37,2.37,0,0,1-2.017.657c-1.525,0-2.216-.63-2.393-1.584h-3.12c.284,2.268,1.879,3.816,5.318,3.816s5.673-1.656,5.69-4.9V2.867H59.163Zm0,3.6a2.709,2.709,0,0,1-.664,2.1,2.623,2.623,0,0,1-1.995.884,2.572,2.572,0,0,1-1.917-.9,2.655,2.655,0,0,1-.618-2.051v-.2c0-1.8.922-3.024,2.606-3.024S59.18,6.035,59.18,7.889Z" transform="translate(-25.553 1.956)"/>
          <path id="Tracé_15" data-name="Tracé 15" d="M47.648,5.134h0c0-3.1-2.216-4.554-5.69-4.554H36.64v14.9h3.315V9.706h1.436l3.545,5.778h3.545l-3.9-6.372a3.877,3.877,0,0,0,3.067-3.978Zm-3.279.108c0,1.44-.851,2.16-2.517,2.16H39.99V3.136h1.879c1.613,0,2.5.486,2.5,2.016Z" transform="translate(-36.64 0.284)"/>
          <path id="Tracé_16" data-name="Tracé 16" d="M49.472,2.643a5.275,5.275,0,0,0-4.017,1.594,5.446,5.446,0,0,0-1.532,4.093v.162a5.444,5.444,0,0,0,1.6,4.068,5.273,5.273,0,0,0,4.041,1.529c2.943,0,4.8-1.314,5.159-3.6H51.883c-.177.918-.869,1.53-2.251,1.53a2.569,2.569,0,0,1-2.02-.851,2.654,2.654,0,0,1-.657-2.119H54.7V8.205a5.105,5.105,0,0,0-1.353-4,4.942,4.942,0,0,0-3.877-1.558ZM46.99,7.2a2.5,2.5,0,0,1,2.482-2.448c1.418,0,2.251.792,2.358,2.448Z" transform="translate(-31.018 1.928)"/>
          <path id="Tracé_17" data-name="Tracé 17" d="M50.648.1h-3.12L46.34,3.43H48.5Z" transform="translate(-29.145 -0.1)"/>
          <path id="Tracé_18" data-name="Tracé 18" d="M76.078,2.644a3.711,3.711,0,0,0-3.545,2v-1.8H69.59v11h3V7.522a2.2,2.2,0,0,1,.562-1.741,2.129,2.129,0,0,1,1.671-.689c1.312,0,1.9.72,1.9,2.2v6.552h3V6.892C79.712,3.94,78.205,2.644,76.078,2.644Z" transform="translate(-11.18 1.928)"/>
          <path id="Tracé_19" data-name="Tracé 19" d="M60.409.113a1.648,1.648,0,0,0-1.486,1.744,1.63,1.63,0,0,0,3.259-.088A1.668,1.668,0,0,0,61.655.544,1.616,1.616,0,0,0,60.409.113Z" transform="translate(-19.425 -0.095)"/>
          <path id="Tracé_20" data-name="Tracé 20" d="M67.582,2.645a5.361,5.361,0,0,0-4.074,1.564,5.534,5.534,0,0,0-1.617,4.106v.162a5.686,5.686,0,0,0,11.363,0V8.243a5.443,5.443,0,0,0-1.608-4.083,5.272,5.272,0,0,0-4.065-1.515Zm2.641,5.8c0,2.052-1.046,3.33-2.641,3.33S64.94,10.493,64.94,8.423v-.18c0-2.088.993-3.312,2.641-3.312s2.641,1.26,2.641,3.348Z" transform="translate(-17.131 1.926)"/>
        </g>
      </g>
      <g id="Symbole_6_2" data-name="Symbole 6 – 2">
        <path id="Tracé_23" data-name="Tracé 23" class="cls-2" d="M.879-5.508q.02-.078.088-.068a.274.274,0,0,0,.127-.01.725.725,0,0,1-.2-.42.827.827,0,0,0-.2-.439q.039-.1.068-.2t.166-.078a2.337,2.337,0,0,1,.02-.8,2.9,2.9,0,0,1,.244-.7,5.255,5.255,0,0,1,.391-.654q.225-.322.439-.654.176-.039.215.029t.137-.029a1.178,1.178,0,0,0,.43-.479,1.4,1.4,0,0,0,.117-.576q.176-.508.4-1.006a6.078,6.078,0,0,1,.518-.928,4.851,4.851,0,0,1,.625-.752,2.521,2.521,0,0,1,.723-.5,3.016,3.016,0,0,1,.693-.43,4.418,4.418,0,0,1,.9-.3,4.924,4.924,0,0,1,.986-.117,3.311,3.311,0,0,1,.938.107q.1.039.117-.049a.1.1,0,0,1,.1-.088,8.141,8.141,0,0,1,1.748.391,3.919,3.919,0,0,1,1.318.762,13.53,13.53,0,0,1,.7,1.26,7.139,7.139,0,0,1,.518,1.406,5.568,5.568,0,0,1,.166,1.514,4.486,4.486,0,0,1-.332,1.563,5.224,5.224,0,0,1-1.66,1.377,11.82,11.82,0,0,1-2.1.859,20.176,20.176,0,0,1-2.324.557q-1.2.215-2.334.469.02.527,0,1.123A8.224,8.224,0,0,1,4.5-2.178a7.118,7.118,0,0,1-.312,1.162A4.3,4.3,0,0,1,3.633.039a2.925,2.925,0,0,0-.811.078q-.42.1-.752.2-.156-.1-.3-.186A.843.843,0,0,0,1.406.02.605.605,0,0,0,1.3-.469q-.166-.254-.332-.5a1.337,1.337,0,0,1-.215-.488.429.429,0,0,1,.225-.439.542.542,0,0,1-.156-.43.265.265,0,0,0,.2.078,2.363,2.363,0,0,1,.088-.84q.127-.488.215-.967a2.7,2.7,0,0,0,.029-.879A.717.717,0,0,0,.879-5.508Zm5.078-4.57q-.078.215-.127.381a2.714,2.714,0,0,1-.107.3q-.059.137-.127.273t-.146.313a.3.3,0,0,0,.156.176.3.3,0,0,1,.156.176,2.672,2.672,0,0,1,.547-.205,5.406,5.406,0,0,1,.547-.107q.273-.039.547-.1a2.664,2.664,0,0,0,.566-.2,3.843,3.843,0,0,1,.615-.225q.322-.088.635-.186A6.09,6.09,0,0,0,9.824-9.7a1.622,1.622,0,0,0,.508-.342,2.386,2.386,0,0,0-.82-.449,4.532,4.532,0,0,0-1.182-.244,4.4,4.4,0,0,0-1.27.088A2.328,2.328,0,0,0,5.957-10.078Zm5.938,8.223.254-.2.02-.41q.488-1.191,1.006-2.285t1.084-2.246q.176-.371.361-.742T14.98-8.5a.682.682,0,0,1-.02-.166A.662.662,0,0,1,15-8.867a6.886,6.886,0,0,0,.439-.7q.166-.312.322-.645.176-.391.381-.781a4.258,4.258,0,0,1,.518-.762l.137-.2.215.02A1.266,1.266,0,0,1,17.178-12a.723.723,0,0,1,.225-.029l.352.059a3.427,3.427,0,0,0,1.143-.85A11,11,0,0,0,19.9-14.16l.234-.332.313.2a1.322,1.322,0,0,0,.313.117q.215.059.449.137.41.1.8.225a1.5,1.5,0,0,1,.605.342l.1.176q.039.215.068.391t.068.352q.078.41.137.811a8.524,8.524,0,0,1,.078.889q.1.391.186.791t.166.791q.1.566.215,1.084a6.009,6.009,0,0,0,.313.986.766.766,0,0,1,.234.02,1.693,1.693,0,0,1,.547-.117l.254-.02.078.234a.776.776,0,0,0,.1.117,1.275,1.275,0,0,0,.137.117.878.878,0,0,1,.459.127A2.117,2.117,0,0,1,26-6.523q.039.039.1.088a.546.546,0,0,0,.1.068l.352.137-.2.371a2.883,2.883,0,0,1-.654.8,4.029,4.029,0,0,1-.986.645,1.333,1.333,0,0,1,.049.254,1.748,1.748,0,0,0,.049.273q.078.391.127.811a3.54,3.54,0,0,1-.01.869,4.739,4.739,0,0,1-.459.908,3.668,3.668,0,0,1-.625.723,3.217,3.217,0,0,1-.811.527,2.475,2.475,0,0,1-.937.225,1.335,1.335,0,0,1-.4-.137,2.235,2.235,0,0,1-.225-.156,1.216,1.216,0,0,0-.254-.156l-.254-.117.078-.293a.307.307,0,0,0-.01-.273,1.539,1.539,0,0,0-.283-.312.853.853,0,0,1-.137-.127q-.059-.068-.137-.146l-.391-.449.645-.176a1.491,1.491,0,0,0,.781-.4,1.3,1.3,0,0,0,.156-.869,2.008,2.008,0,0,0-.8-.029q-.313.068-.625.146-.449.117-.879.205a4.682,4.682,0,0,1-.937.088,4.516,4.516,0,0,1-.7-.059l-.215-.02-.059-.215a.135.135,0,0,0-.049-.088L17.3-3.5q-.1-.117-.234-.312a.563.563,0,0,1-.059-.488.98.98,0,0,1-.156-.449,2.319,2.319,0,0,0-.127.3q-.049.146-.088.283l-.078.254-.254.039a.327.327,0,0,0-.068.117.153.153,0,0,0-.01.117l.078.215-.2.176a.349.349,0,0,1-.1.1.64.64,0,0,0-.1.078,2.7,2.7,0,0,1-.107.41q-.068.2-.146.391-.1.312-.186.605a2.03,2.03,0,0,0-.088.586l-.078.254a.646.646,0,0,1-.244.234q-.146.078-.283.137a.838.838,0,0,0-.273.156l-.059.254L14.16,0q-.254.059-.361.078a1.374,1.374,0,0,1-.244.02L13.3.078q-.234-.234-.381-.361a1.635,1.635,0,0,0-.342-.225l-.117-.156a.979.979,0,0,1-.1-.283,2.153,2.153,0,0,0-.059-.264.779.779,0,0,0-.117-.352Zm6.23-5.078q-.273.391-.527.82a1.865,1.865,0,0,1,.264-.02,1.865,1.865,0,0,0,.264-.02q.684-.039,1.27-.1t1.27-.2q-.156-.723-.342-1.475t-.4-1.514l-.1.2a13.538,13.538,0,0,0-.937,1.133,9.418,9.418,0,0,0-.742,1.152Zm8.184-1.875q.059-.293.078-.479a.585.585,0,0,0-.137-.4q.078-.312.127-.488a1.3,1.3,0,0,0,.01-.488,2.168,2.168,0,0,1,.537-.859,3.878,3.878,0,0,1,.791-.6,5.6,5.6,0,0,1,.9-.41q.469-.166.879-.283a.069.069,0,0,0-.078-.078q-.078,0-.039-.1a14.4,14.4,0,0,0,2.119-.566q1.064-.371,2.178-.664a11.614,11.614,0,0,1,2.285-.361,7.331,7.331,0,0,1,2.461.3,2.03,2.03,0,0,0,.215.449q.137.215.283.42t.264.4a.958.958,0,0,1,.137.41,2.069,2.069,0,0,1,.381.459.864.864,0,0,1,.049.654q-.215.156-.449.313t-.488.293a5.751,5.751,0,0,0-1.758-.156q-.879.059-1.582.137a.636.636,0,0,0-.508-.225,2.68,2.68,0,0,0-.615.1l-.635.176a1.415,1.415,0,0,1-.586.049,1.148,1.148,0,0,1-.566.264q-.352.068-.742.107a.121.121,0,0,0,.039.137q.059.039.02.156a.705.705,0,0,0,.371.244q.234.068.479.127a1.76,1.76,0,0,1,.439.166.512.512,0,0,1,.254.342,1.208,1.208,0,0,1,.605.186,1.683,1.683,0,0,1,.43.4,1.57,1.57,0,0,1,.254.5,1.284,1.284,0,0,1,.059.479q.078.2.166.156t.205.1a1.579,1.579,0,0,0,.361.615,2.542,2.542,0,0,1,.439.693q.039.586.068,1.055a1.966,1.966,0,0,1-.166.918,4.868,4.868,0,0,1-.957,1.543,7.4,7.4,0,0,1-1.416,1.2,11.116,11.116,0,0,1-1.67.9,15.223,15.223,0,0,1-1.738.635.443.443,0,0,0-.186,0q-.107.02-.049-.117a.8.8,0,0,1-.4.2,2.345,2.345,0,0,1-.488.029Q28.672.215,28.408.2a2.284,2.284,0,0,0-.518.02A4.1,4.1,0,0,1,27.607-.1,1.272,1.272,0,0,1,27.4-.469.1.1,0,0,1,27.314-.6q.01-.107-.088-.107a.272.272,0,0,1,.02-.117L27.285-.9q.078-.059.068-.088a.124.124,0,0,0-.059-.059.889.889,0,0,1-.1-.068.082.082,0,0,1-.029-.1.679.679,0,0,0,.068-.42q-.029-.244-.049-.5a1.445,1.445,0,0,1,.039-.479.638.638,0,0,1,.332-.381,4.841,4.841,0,0,0,1.514-.078A7.405,7.405,0,0,0,30.42-3.5a13.076,13.076,0,0,0,1.211-.6q.576-.322,1.123-.6a.83.83,0,0,1,.186-.332q.127-.137.264-.264a2.526,2.526,0,0,0,.254-.273.986.986,0,0,0,.176-.361.176.176,0,0,0,0-.117.194.194,0,0,0-.059-.068.733.733,0,0,1-.078-.068.159.159,0,0,1-.039-.117q-.059-.02-.107-.039a.24.24,0,0,0-.088-.02,7.108,7.108,0,0,0-1.074-.43,5.194,5.194,0,0,1-.957-.391.517.517,0,0,1-.469.078q-.234-.078-.566-.156A14.074,14.074,0,0,1,28.643-7.4a5.98,5.98,0,0,1-1.416-.41.856.856,0,0,0-.1-.205q-.059-.088-.273-.049a4.093,4.093,0,0,0-.283-.361A2.073,2.073,0,0,1,26.309-8.809Zm11.523,0q.059-.293.078-.479a.585.585,0,0,0-.137-.4q.078-.312.127-.488a1.3,1.3,0,0,0,.01-.488,2.168,2.168,0,0,1,.537-.859,3.878,3.878,0,0,1,.791-.6,5.6,5.6,0,0,1,.9-.41q.469-.166.879-.283a.069.069,0,0,0-.078-.078q-.078,0-.039-.1a14.4,14.4,0,0,0,2.119-.566q1.064-.371,2.178-.664a11.614,11.614,0,0,1,2.285-.361,7.331,7.331,0,0,1,2.461.3,2.03,2.03,0,0,0,.215.449q.137.215.283.42t.264.4a.958.958,0,0,1,.137.41,2.069,2.069,0,0,1,.381.459.864.864,0,0,1,.049.654q-.215.156-.449.313t-.488.293a5.751,5.751,0,0,0-1.758-.156q-.879.059-1.582.137a.636.636,0,0,0-.508-.225,2.68,2.68,0,0,0-.615.1l-.635.176a1.415,1.415,0,0,1-.586.049,1.148,1.148,0,0,1-.566.264q-.352.068-.742.107a.121.121,0,0,0,.039.137q.059.039.02.156a.705.705,0,0,0,.371.244q.234.068.479.127a1.76,1.76,0,0,1,.439.166.512.512,0,0,1,.254.342,1.208,1.208,0,0,1,.605.186,1.683,1.683,0,0,1,.43.4,1.57,1.57,0,0,1,.254.5,1.284,1.284,0,0,1,.059.479q.078.2.166.156t.205.1a1.579,1.579,0,0,0,.361.615,2.542,2.542,0,0,1,.439.693q.039.586.068,1.055a1.966,1.966,0,0,1-.166.918,4.868,4.868,0,0,1-.957,1.543,7.4,7.4,0,0,1-1.416,1.2,11.116,11.116,0,0,1-1.67.9,15.223,15.223,0,0,1-1.738.635.443.443,0,0,0-.186,0q-.107.02-.049-.117a.8.8,0,0,1-.4.2,2.345,2.345,0,0,1-.488.029Q40.2.215,39.932.2a2.284,2.284,0,0,0-.518.02A4.1,4.1,0,0,1,39.131-.1a1.272,1.272,0,0,1-.205-.371A.1.1,0,0,1,38.838-.6Q38.848-.7,38.75-.7a.272.272,0,0,1,.02-.117L38.809-.9q.078-.059.068-.088a.124.124,0,0,0-.059-.059.889.889,0,0,1-.1-.068.082.082,0,0,1-.029-.1.679.679,0,0,0,.068-.42q-.029-.244-.049-.5a1.445,1.445,0,0,1,.039-.479.638.638,0,0,1,.332-.381A4.841,4.841,0,0,0,40.6-3.066a7.4,7.4,0,0,0,1.348-.43,13.076,13.076,0,0,0,1.211-.6q.576-.322,1.123-.6a.83.83,0,0,1,.186-.332q.127-.137.264-.264a2.526,2.526,0,0,0,.254-.273.986.986,0,0,0,.176-.361.176.176,0,0,0,0-.117A.194.194,0,0,0,45.1-6.1a.733.733,0,0,1-.078-.068.159.159,0,0,1-.039-.117q-.059-.02-.107-.039a.24.24,0,0,0-.088-.02,7.108,7.108,0,0,0-1.074-.43,5.194,5.194,0,0,1-.957-.391.517.517,0,0,1-.469.078q-.234-.078-.566-.156A14.074,14.074,0,0,1,40.166-7.4a5.98,5.98,0,0,1-1.416-.41.856.856,0,0,0-.1-.205q-.059-.088-.273-.049a4.093,4.093,0,0,0-.283-.361A2.073,2.073,0,0,1,37.832-8.809Z" transform="translate(-1 22)"/>
      </g>
      <g id="Groupe_2" data-name="Groupe 2" transform="translate(2 2.274)">
        <path id="Tracé_24" data-name="Tracé 24" class="cls-2" d="M6.6,5.343v6.125H0V7.633A7.846,7.846,0,0,1,.975,3.186,8.811,8.811,0,0,1,5.187,0L6.6,2.616A6.093,6.093,0,0,0,3.805,4.381,2.96,2.96,0,0,0,3.07,6.624Z" transform="translate(58.272 14.818) rotate(-180)"/>
        <path id="Tracé_25" data-name="Tracé 25" d="M6.109-6.021,5.812.02H-.3Z" transform="translate(51.996 9.446)"/>
      </g>
    </g>
  </g>
</svg>
